<svg width="128" height="128" viewBox="0 0 128 128" fill="none" xmlns="http://www.w3.org/2000/svg">
<path d="M123.1 52.7C123.1 43.4 120.8 34.5 116.6 26.8C117.2 29.8 117.5 32.8 117.5 35.9C117.5 47.9 113.2 58.9 105.9 67.7C106 66.7 106 65.8 106 64.8V64.1V63.5C106 31.2 80.8 4.89999 49.6 4.89999C40.3 4.89999 31.4 7.19999 23.7 11.4C26.7 10.8 29.7 10.5 32.8 10.5C44 10.5 54.3 14.3 62.8 20.7C61.4 20.7 60 20.8 58.7 21C28.6 23.3 5 47.5 5 77.1C5 86.4 7.4 95.3 11.6 103C11 100 10.7 97 10.7 93.9C10.7 82.6 14.5 72.2 21 63.7V64.7C21 65.5 21 66.3 21.1 67.1C22.4 98.3 47.1 123.1 77.4 123.1C86.7 123.1 95.6 120.7 103.3 116.5C100.3 117.1 97.3 117.4 94.2 117.4C84.1 117.4 74.7 114.3 66.8 109.1C98.1 107.9 123.1 83.1 123.1 52.7V52.7ZM64 84C53.3 84 44.7 75 44.7 64C44.7 53 53.3 44 64 44C74.7 44 83.3 53 83.3 64C83.3 75 74.6 84 64 84Z" fill="url(#paint0_radial)"/>
<path opacity="0.2" d="M49.6 7.89999C79.1 7.89999 103 32.9 103 63.6V64.9C103 65.8 103 66.4 102.9 67.4C102.8 68.7 103.6 69.9 104.8 70.4C105.2 70.5 105.5 70.6 105.9 70.6C106.8 70.6 107.6 70.2 108.2 69.5C114.1 62.3 118 54.1 119.6 45.3C119.9 47.7 120.1 50.1 120.1 52.6C120.1 66.5 114.6 79.7 104.5 89.7C94.4 99.7 81.1 105.5 66.7 106C65.4 106.1 64.3 106.9 63.9 108.2C63.5 109.5 64 110.8 65.1 111.5C71.1 115.5 77.8 118.2 84.8 119.5C82.3 119.9 79.9 120 77.3 120C63.5 120 50.3 114.5 40.3 104.6C30.3 94.7 24.5 81.3 23.9 66.9C23.9 66.1 23.8 65.5 23.8 64.8V64.1V63.8C23.7 62.2 22.4 61 20.8 61C19.8 61 18.7 61.6 18.1 62.6C13.1 69.3 9.8 76.8 8.3 84.7C7.9 82.2 7.8 79.7 7.8 77.2C7.8 63.7 13 50.9 22.5 41C32.2 31 45 25 58.9 23.9H59C60.2 23.8 61.4 23.7 62.8 23.7C64.1 23.7 65.2 22.8 65.6 21.6C66 20.4 65.6 19.1 64.6 18.3C58 13.3 50.5 9.99999 42.6 8.49999C44.9 8.09999 47.2 7.89999 49.6 7.89999V7.89999ZM64 87C76.3 87 86.3 76.7 86.3 64C86.3 51.3 76.3 41 64 41C51.7 41 41.7 51.3 41.7 64C41.7 76.7 51.7 87 64 87ZM49.6 4.89999C40.3 4.89999 31.4 7.19999 23.7 11.3C26.7 10.7 29.7 10.4 32.8 10.4C44 10.4 54.3 14.2 62.8 20.5C61.4 20.5 60 20.6 58.7 20.8C28.6 23.3 5 47.5 5 77.1C5 86.4 7.4 95.3 11.6 103C11 100 10.7 97 10.7 93.9C10.7 82.6 14.5 72.4 21 64V63.9V64.7C21 65.5 21 66.2 21.1 67C22.3 98.2 47 123 77.4 123C86.7 123 95.6 120.6 103.3 116.4C100.3 117 97.3 117.3 94.2 117.3C84.1 117.3 74.7 114.2 66.8 109C98.1 107.9 123.1 83.1 123.1 52.6C123.1 43.3 120.8 34.4 116.6 26.7C117.2 29.7 117.5 32.7 117.5 35.8C117.5 47.8 113.2 58.8 105.9 67.6C106 66.6 106 65.9 106 64.9V64.5V63.6C106 31.3 80.7 4.89999 49.6 4.89999V4.89999ZM64 84C53.3 84 44.7 75 44.7 64C44.7 53 53.3 44 64 44C74.7 44 83.3 53 83.3 64C83.3 75 74.6 84 64 84Z" fill="#424242"/>
<defs>
<radialGradient id="paint0_radial" cx="0" cy="0" r="1" gradientUnits="userSpaceOnUse" gradientTransform="translate(63.667 64) scale(51.34)">
<stop offset="0.2" stop-color="#1565C0"/>
<stop offset="0.768" stop-color="#1E88E5"/>
</radialGradient>
</defs>
</svg>